# xmcd CD database file
#
# Track frame offsets:
#	150
#	16072
#	66856
#	105751
#	141775
#	187550
#	222897
#
# Disc length: 3147 seconds
#
# Revision: 1
# Processed by: cddbd v1.5.2PL0 Copyright (c) Steve Scherf et al.
# Submitted via: CDex 1.51
#
DISCID=4d0c4907
DTITLE=Dsama M´butu Arkestra - First Excavation
DYEAR=2011
DGENRE=Jazz
TTITLE0=One To Nine
TTITLE1=Somnabulia
TTITLE2=Insomnia
TTITLE3=Bukon Mashie
TTITLE4=Sonny Please - Moj Dilbere
TTITLE5=Silly Walk
TTITLE6=Tonight At Noon
EXTD=YEAR: 2011
EXTT0=
EXTT1=
EXTT2=
EXTT3=
EXTT4=
EXTT5=
EXTT6=
PLAYORDER=
